<?xml version="1.0" encoding="UTF-8" standalone="no"?>
<svg
   xmlns:dc="http://purl.org/dc/elements/1.1/"
   xmlns:cc="http://creativecommons.org/ns#"
   xmlns:rdf="http://www.w3.org/1999/02/22-rdf-syntax-ns#"
   xmlns:svg="http://www.w3.org/2000/svg"
   xmlns="http://www.w3.org/2000/svg"
   xmlns:sodipodi="http://sodipodi.sourceforge.net/DTD/sodipodi-0.dtd"
   xmlns:inkscape="http://www.inkscape.org/namespaces/inkscape"
   width="137.84094mm"
   height="32.168827mm"
   viewBox="0 0 137.84094 32.168827"
   version="1.1"
   id="svg8"
   inkscape:version="1.0.1 (3bc2e813f5, 2020-09-07)"
   sodipodi:docname="finger_tendons.svg"
   inkscape:export-filename="/home/afabisch/finger_tendons.png"
   inkscape:export-xdpi="90"
   inkscape:export-ydpi="90">
  <defs
     id="defs2" />
  <sodipodi:namedview
     id="base"
     pagecolor="#ffffff"
     bordercolor="#666666"
     borderopacity="1.0"
     inkscape:pageopacity="0.0"
     inkscape:pageshadow="2"
     inkscape:zoom="0.98994949"
     inkscape:cx="140.71517"
     inkscape:cy="10.489812"
     inkscape:document-units="mm"
     inkscape:current-layer="layer1"
     inkscape:document-rotation="0"
     showgrid="false"
     fit-margin-top="0"
     fit-margin-left="0"
     fit-margin-right="0"
     fit-margin-bottom="0"
     inkscape:window-width="1920"
     inkscape:window-height="1051"
     inkscape:window-x="1920"
     inkscape:window-y="0"
     inkscape:window-maximized="1" />
  <metadata
     id="metadata5">
    <rdf:RDF>
      <cc:Work
         rdf:about="">
        <dc:format>image/svg+xml</dc:format>
        <dc:type
           rdf:resource="http://purl.org/dc/dcmitype/StillImage" />
        <dc:title />
      </cc:Work>
    </rdf:RDF>
  </metadata>
  <g
     inkscape:label="Layer 1"
     inkscape:groupmode="layer"
     id="layer1"
     transform="translate(-26.864956,-52.787056)">
    <path
       style="fill:none;stroke:#ff6200;stroke-width:2;stroke-linecap:butt;stroke-linejoin:miter;stroke-miterlimit:4;stroke-dasharray:none;stroke-opacity:0.856936"
       d="m 131.90179,83.971825 c 0,0 -14.42397,-2.606768 -18.2899,-4.219256 C 101.09205,73.186734 93.145539,71.549813 81.257151,69.962276 79.084896,69.57972 63.004066,68.129792 63.004066,68.129792"
       id="path847"
       sodipodi:nodetypes="cccc" />
    <path
       style="fill:none;stroke:#ff0100;stroke-width:2;stroke-linecap:butt;stroke-linejoin:miter;stroke-miterlimit:4;stroke-dasharray:none;stroke-opacity:0.856936"
       d="m 146.1606,67.078754 c 0,0 -13.24044,-3.769733 -19.70233,-6.123939 -3.37079,-1.228051 -6.42843,-3.357659 -9.92386,-4.165313 -7.15152,-1.652433 -14.64987,-0.966648 -21.984383,-1.24905 -11.165379,-0.429903 -23.278355,-3.232291 -33.514109,-0.677546 -0.965598,0.359158 -7.847838,4.148435 -10.863205,4.230789 -5.778328,-0.338812 -9.853665,2.389673 -13.544806,5.518699"
       id="path849"
       sodipodi:nodetypes="caaaccc" />
    <path
       style="fill:none;stroke:#ffff00;stroke-width:2;stroke-linecap:butt;stroke-linejoin:miter;stroke-miterlimit:4;stroke-dasharray:none;stroke-opacity:0.856936"
       d="m 138.87187,81.840103 c 0,0 -42.459582,-10.535816 -44.739802,-10.724805 -2.28022,-0.188989 -6.13597,0.830973 -12.38009,0.616523 -9.726243,-0.334042 -17.769439,-2.907466 -20.786096,-2.907466 -3.016657,0 -7.205645,-0.638958 -9.165289,0.369216 -5.811202,1.341181 -7.945536,1.094987 -13.164076,2.678112"
       id="path851"
       sodipodi:nodetypes="cssscc" />
    <g
       id="g315"
       style="fill:#0071bc;fill-opacity:0.288"
       transform="matrix(0.07685846,0.4835306,0.4835306,-0.07685846,-16.794608,-85.273904)">
      <path
         id="path317"
         style="fill:#0071bc;fill-opacity:0.288;stroke:#000000"
         d="m 310.352,116.044 c -1.154,-2.815 1.696,-6.798 2.817,-9.055 3.034,-6.106 3.951,-14.049 3.25,-20.764 -0.254,-2.431 -0.87,-4.967 -0.568,-7.456 0.108,-0.904 0.507,-1.372 0.331,-2.306 -0.184,-0.97 -1.012,-1.708 -1.074,-2.87 -0.182,-3.373 2.061,-3.971 4.949,-3.817 2.928,0.155 5.845,0.321 8.794,0.506 2.23,0.14 3.163,-0.597 3.764,1.556 0.403,1.445 0.63,3.725 0.699,5.195 0.098,2.079 -0.929,4.023 -1.9,5.812 -2.735,5.03 -1.047,10.928 -0.355,16.254 0.278,2.144 0.519,4.043 1.056,6.115 0.613,2.365 4.076,8.406 3.449,10.306 -0.582,1.764 -4.012,3.759 -5.449,4.762 -1.741,1.215 -3.347,2.188 -5.515,2.014 -4.221,-0.342 -12.347,-1.61 -14.248,-6.252 z"
         inkscape:connector-curvature="0" />
      <path
         id="path319"
         style="fill:#0071bc;fill-opacity:0.288"
         d="m 313.114,116.948 c 0.749,0.741 2.083,1.621 3.165,1.676 0.953,0.048 2.35,-0.9 1.057,-1.634 0.55,-0.565 1.489,-0.632 2.252,-0.518 -0.256,1.678 -1.486,3.46 1.4,3.481 4.102,0.031 -0.065,-3.865 2.633,-4.188 1.678,-0.2 -0.34,3.799 1.152,4.329 1.503,0.533 1.791,-1.888 1.815,-2.78 0.009,-0.323 -0.608,-0.131 -0.327,-0.709 0.117,-0.242 1.038,-0.6 1.285,-0.778 0.311,2.939 4.959,0.802 5.863,-0.714 1.394,-2.334 -0.729,-4.979 -1.342,-7.466 -0.094,-0.379 -0.089,-1.237 -0.326,-1.545 -0.324,-0.423 -0.744,-0.285 -1.128,-0.618 -0.806,-0.699 -0.667,-1.192 -0.667,-2.497 0,-1.9 -0.13,-3.695 -0.334,-5.574 -0.195,-1.799 0.017,-4.12 -0.712,-5.76 -0.851,2.632 -0.664,5.717 -0.613,8.431 -1.161,-3.366 0.741,-7.196 -1.813,-10.086 -0.216,2.676 0.354,5.69 -0.017,8.292 -0.153,1.079 -1.428,5.858 1.292,5.35 0.114,0.638 0.448,1.197 0.883,1.642 -0.833,0.791 -0.675,2.069 -1.025,3.115 -0.141,-0.624 -0.679,-0.752 -1.14,-0.342 0.72,-0.897 0.021,-2.869 -1.002,-3.094 0.227,1.818 0.189,4.186 -1.653,5.303 0.2,-1.742 -2.243,-1.866 -2.805,-0.609 1.53,0.87 -0.702,3.594 -1.828,4.455 0.214,-1.137 2.894,-2.988 2.232,-3.952 -1.361,-1.987 -3.774,2.86 -4.608,2.765 -0.155,-0.68 -0.109,-1.422 -0.688,-1.912 -0.445,0.296 -0.939,0.629 -1.471,0.758 -0.355,-0.774 -0.459,-2.678 -0.082,-3.498 0.08,-0.176 0.67,-0.527 0.879,-0.822 0.274,-0.389 0.555,-0.815 0.629,-1.286 0.021,0.485 0.307,0.757 0.541,1.115 1.342,-0.987 0.158,-5.172 0.667,-6.775 -0.019,0.09 -0.009,0.177 0.033,0.261 1.27,-1.285 0.313,-5.107 0.124,-6.692 -0.242,-2.045 0.316,-3.799 0.343,-5.769 0.022,-1.666 0.048,-3.503 -0.167,-5.153 -0.138,-1.057 -0.438,-0.976 -0.8,-1.854 -0.759,-1.836 0.278,-2.623 0.663,-4.486 1.287,-0.043 2.51,0.702 3.808,0.848 1.2,0.136 2.253,-0.04 3.437,-0.055 -1.064,2.086 -2.327,2.313 -4.147,3.386 -0.905,0.533 -1.804,2.016 -2.261,2.996 -0.877,1.886 0.123,4.379 0.764,6.149 0.373,1.03 0.2,2.158 0.517,3.271 -0.891,0.578 -0.242,2.021 0.396,0.935 0.413,1.077 1.242,2.759 1.116,3.77 -0.241,1.933 -2.217,3.165 -2.939,4.97 1.183,-0.797 2.019,-3.159 3.419,-3.61 0.512,2.727 -2.604,5.372 -2.62,7.96 1.017,0.111 1.54,-1.834 2.021,-2.598 1.341,1.979 1.709,-2.295 1.8,-2.896 0.22,-1.445 0.924,-2.471 1.366,-3.889 0.585,-1.874 0.91,-4.085 0.592,-6.049 -0.271,-1.68 -1.013,-1.631 -1.84,-2.539 -0.445,-0.488 -0.118,-1.054 -0.793,-1.394 -0.324,-0.163 -0.742,0.134 -1.172,0.044 -1.59,-0.334 -1.443,-2.316 -0.827,-3.99 0.628,-1.707 1.361,-2.202 2.87,-1.301 1.096,0.656 2.664,2.098 2.662,-0.172 1.068,-0.67 1.651,-3.559 2.158,-4.826 -0.566,1.144 -1.188,5.121 -0.182,6.009 0.505,-0.888 0.649,-2.366 1.632,-2.872 -0.003,0.407 0.279,0.607 0.362,0.848 1.035,-0.48 1.109,-1.961 1.212,-2.853 0.1,-0.861 -0.132,-0.628 0.458,-1.501 0.31,-0.458 0.588,-0.879 1.004,-1.277 -0.352,2.317 -0.268,4.209 -1.466,6.277 -1.05,1.813 -1.6,2.88 -1.708,5.01 -0.189,3.717 0.455,7.712 1.163,11.32 0.694,3.54 1.361,7.064 2.546,10.503 0.733,2.132 2.578,5.562 1.304,7.843 -0.769,1.374 -2.512,1.72 -3.854,2.163 -1.219,0.402 -2.117,1.377 -3.324,1.786 -1.305,0.442 -2.924,0.042 -4.334,0.042 -1.813,0 -3.465,-0.111 -5.162,-0.787 -2.451,-0.975 -4.607,-1.651 -6.212,-3.879 -1.679,-2.331 0.034,-5.268 1.511,-7.322 -0.243,2.735 -2.001,5.478 0.363,7.818 z"
         inkscape:connector-curvature="0" />
      <path
         id="path321"
         style="fill:#0071bc;fill-opacity:0.288"
         d="m 317.28,72.948 c -1.733,1.866 2.63,2.983 3.846,2.796 0.747,-0.114 1.323,-0.518 2.01,-0.792 1.463,-0.586 5.688,-1.098 6.128,-2.97 -2.065,-0.19 -4.131,0.708 -6.171,0.353 -1.01,-0.177 -2.069,-1.082 -2.942,-1.193 -0.521,-0.067 -0.453,0.606 -1.146,0.327 1.895,1.576 -1.918,1.402 -2.032,1.841 -0.043,0.163 -0.028,0.304 -0.025,0.473"
         inkscape:connector-curvature="0" />
    </g>
    <g
       id="g243"
       style="fill:#f26522;fill-opacity:0.392"
       transform="matrix(0.08848816,0.36549186,0.36549186,-0.08848816,-13.725932,-44.494307)">
      <path
         id="path245"
         style="fill:#f26522;fill-opacity:0.392;stroke:#000000"
         d="m 316.108,49.736 c 0.698,0.257 2.622,-1.783 3.223,-2.19 -0.85,4.399 -1.045,9.979 -3.969,13.735 -0.967,1.242 -1.945,1.674 -2.242,3.258 -0.288,1.535 0.143,3.256 2.218,3.043 -1.634,1.614 1.773,2.202 2.775,2.45 1.786,0.441 3.086,1.655 4.861,2.201 2.644,0.813 4.086,-1.281 5.944,-2.701 1.835,-1.402 3.401,-0.971 5.413,-1.799 0.014,-0.214 -0.1,-0.318 -0.113,-0.458 1.11,-0.732 1.475,-3.194 1.144,-4.493 -0.612,-2.405 -2.45,-1.327 -3.755,-2.744 -1.385,-1.505 -1.356,-5.463 -1.688,-7.331 -0.243,-1.369 -0.9,-4.388 0.126,-5.399 1.343,2.656 2.193,0.578 2.561,-1.288 0.4,-2.029 0.158,-3.224 -0.674,-5.044 -0.615,-1.348 -0.556,-3.413 -1.506,-4.511 -0.566,-0.653 -1.328,-0.544 -1.818,-0.927 -0.554,-0.433 -0.854,-1.173 -1.551,-1.692 -1.14,-0.85 -3.375,-0.696 -4.693,-0.313 -2.358,0.684 -2.771,2.11 -3.977,3.813 -1.203,1.698 -3.432,3.008 -3.031,5.432 0.163,0.986 0.756,1.374 0.791,2.488 0.025,0.779 -1.379,3.977 -0.039,4.47 z"
         inkscape:connector-curvature="0" />
      <path
         id="path247"
         style="fill:#f26522;fill-opacity:0.392"
         d="m 327.301,66.74 c -1.449,-0.559 -2.381,-0.644 -4.082,-0.293 -0.713,0.146 -4.645,1.718 -5.014,1.235 -0.072,-0.097 -0.295,-0.94 0.053,-0.872 -0.095,-0.019 -0.189,-0.038 -0.283,-0.057 0.266,-1.579 -1.703,-1.521 -1.049,-0.164 -1.137,-0.049 -2.02,0.399 -1.961,-1.245 1.097,0.265 2.628,0.301 2.34,-1.213 0.17,-0.008 0.781,0.106 0.95,0.176 -0.261,1.77 2.151,2.942 1.05,0.008 0.073,-0.117 0.268,-0.428 0.346,-0.516 0.333,0.558 0.364,1.541 1.271,1.457 0.154,-1.395 -0.341,-2.889 -0.95,-4.096 0.515,-0.419 0.554,-1.087 0.509,-1.703 0.418,0.58 0.867,8.227 3.137,5.157 0.748,-1.012 -0.061,-1.727 -0.178,-2.658 -0.127,-1.001 0.473,-2.124 -0.322,-2.824 -0.107,0.196 -0.35,0.381 -0.467,0.603 -0.155,-0.773 -0.496,-1.102 -0.337,-1.777 0.202,-0.857 1.372,-1.205 0.792,-2.287 -0.014,0.18 0.049,0.379 0.033,0.551 1.78,-0.241 0.358,3.965 1.012,5.214 0.115,-0.185 0.521,-0.565 0.592,-0.807 -0.07,0.669 0.295,1.832 0.542,2.444 0.474,1.172 0.552,1.014 1.662,0.23 1.354,2.799 3.324,-5.517 1.296,-3.154 -0.42,0.489 -0.252,1.471 -0.963,1.644 -0.629,0.152 -1.037,-0.661 -1.178,-1.141 -0.313,-1.063 0.299,-2.18 0.016,-3.24 -0.537,-2.002 -3.1,-2.224 -3.674,-4.463 -0.186,-0.724 -0.424,-2.324 -0.347,-2.99 0.099,-0.854 1.261,-2.15 -0.45,-2.485 -0.014,-0.01 -0.18,0.229 -0.205,0.25 -0.065,-0.238 -0.207,-0.361 -0.296,-0.561 -0.277,1.089 -0.354,2.15 -0.39,3.261 -1.018,0.05 -1.932,3.698 -2.15,4.644 0.57,-2.096 1.662,-4.718 1.346,-6.952 -0.33,-2.322 -1.76,-0.011 -2.982,0.495 0.132,-1.043 1.145,-2.385 1.473,-3.494 0.248,-0.837 0.326,-1.351 1.168,-2.046 0.861,-0.712 1.236,-1.082 1.967,-1.964 0.719,-0.867 2.01,-1.605 3.179,-1.803 -0.056,1.121 0.447,1.689 0.858,2.513 0.31,0.62 0.085,1.764 1.342,1.273 0.602,-0.233 0.895,-1.073 0.646,-1.591 0.39,1.117 1.399,2.616 -0.284,3.254 -0.639,0.242 -1.961,-0.729 -1.54,1.232 0.231,1.081 0.851,0.49 1.353,1.163 0.437,0.586 10e-4,0.6 -0.053,1.289 -0.062,0.808 -0.38,3.15 1.008,2.985 0.054,-0.198 0.16,-0.397 0.205,-0.59 -0.126,1.698 0.733,3.463 1.361,5.015 0.407,1.005 1.459,5.648 2.821,5.602 -0.366,0.146 -2.517,1.801 -1.087,2.329 -0.439,0.436 -1.86,1.273 -1.541,1.849 0.487,0.878 2.357,-0.196 1.832,-1.316 1.221,-0.343 0.668,-3.25 2.445,-2.703 1.4,0.43 1.038,3.266 0.617,4.137 -1.322,2.738 -5.197,1.86 -7.439,0.995 z"
         inkscape:connector-curvature="0" />
      <path
         id="path249"
         style="fill:#f26522;fill-opacity:0.392"
         d="m 323.755,68.804 c 0.028,0.794 -0.27,1.815 0.858,1.657 0.85,-0.12 1.05,-1.231 0.559,-1.817 0.559,-0.08 1.039,-0.398 1.578,-0.627 0.371,0.479 0.939,0.799 1.463,1.095 -1.139,1.439 -2.34,2.585 -4.1,2.347 -1.094,-0.147 -2.773,-0.784 -3.27,-1.82 0.306,0.639 1.557,0.765 2.057,0.499 -0.348,-0.694 -0.657,-1.55 -0.394,-2.302 0.045,-0.127 0.596,0.546 0.493,0.899 0.228,0.041 0.524,0.107 0.756,0.069 z"
         inkscape:connector-curvature="0" />
      <path
         id="path251"
         style="fill:#f26522;fill-opacity:0.392"
         d="m 321.779,37.615 c 0.856,-0.434 2.258,-0.152 2.025,0.975 0.197,-0.075 0.544,-0.003 0.779,-0.12 0.429,1.105 0.795,-0.214 1.351,-0.483 0.999,-0.484 2.169,-0.323 2.85,0.463 0.331,0.383 0.957,1.555 1.073,2 0.276,1.063 -0.309,1.544 -0.853,2.645 0.641,-0.056 1.409,-0.248 1.642,-0.966 0.293,0.142 0.66,0.506 0.825,0.813 -0.619,0.646 -0.007,1.37 0.017,2.179 0.02,0.683 -0.429,1.339 0,2.146 0.974,-0.904 1.287,-6.488 -0.684,-6.507 -0.039,-1.818 -0.62,-2.771 -1.558,-4.283 -0.396,0.255 -2.05,0.695 -2.458,0.612 -1.42,-0.289 -0.835,-0.898 -0.363,-1.608 -0.469,-0.106 -0.924,-0.004 -1.275,0.282 -0.084,-0.106 -0.27,-0.521 -0.299,-0.65 2.088,-0.979 -0.575,-1.874 -1.221,0.314 0.559,0.012 1.24,0.651 0.49,1.036 -0.415,0.212 -1.278,-0.545 -1.668,-0.663 -0.197,0.178 -0.24,0.231 -0.326,0.456 0.641,0.119 1.378,0.227 1.636,0.861 -0.633,0.512 -1.321,0.119 -1.998,-0.183 -0.365,0.131 0.013,0.092 0.015,0.183"
         inkscape:connector-curvature="0" />
    </g>
    <g
       id="g305"
       style="fill:#8cc63f;fill-opacity:0.368"
       transform="matrix(-0.09782182,0.5214515,0.5214515,0.09782182,36.831611,-119.1325)">
      <path
         id="path307"
         style="fill:#8cc63f;fill-opacity:0.368;stroke:#000000"
         d="m 301.864,193.769 c -0.794,-1.208 -0.386,-3.343 -0.938,-4.792 -0.846,-2.212 -1.02,-3.328 0.412,-5.487 0.892,-1.345 2.22,-2.251 3.268,-3.445 4.626,-5.272 4.327,-13.84 5.189,-20.575 0.584,-4.552 1.313,-8.99 2.269,-13.443 0.619,-2.884 0.426,-6.033 0.787,-8.99 0.644,-5.266 -3.106,-9.68 -0.419,-15.033 0.834,-1.659 1.59,-2.371 3.182,-2.964 1.878,-0.699 2.197,-0.028 3.994,0.75 1.883,0.816 4.623,1.46 6.648,0.938 1.252,-0.322 1.865,-1.178 3.357,-0.955 5.749,0.856 5.245,8.479 4.443,12.75 -0.621,3.31 -2.055,6.243 -3.012,9.456 -0.672,2.258 -0.234,4.53 -0.487,6.861 -0.393,3.617 -1.964,7.102 -2.2,10.742 -0.449,6.933 -0.746,14.473 0.493,21.252 0.993,5.438 5.044,10.958 -0.049,15.507 -1.595,1.424 -2.111,3.25 -4.189,2.768 -1.829,-0.424 -3.56,-2.359 -5.487,-3.005 -2.422,-0.811 -4.678,-0.576 -7.193,-0.874 -2.669,-0.319 -8.364,1.129 -10.068,-1.461 z"
         inkscape:connector-curvature="0" />
      <path
         id="path309"
         style="fill:#8cc63f;fill-opacity:0.368"
         d="m 309.113,193.949 c 1.26,0.039 2.355,-1.088 3.115,-1.975 -1.035,-0.204 -1.018,-0.779 -0.451,-1.487 1.295,-1.618 1.697,0.151 2.494,0.106 1.99,-0.11 0.304,-1.435 -0.195,-1.969 -1.135,-1.214 -1.373,-2.008 -3.236,-2.183 2.038,-0.178 2.695,2.334 0.641,2.656 -0.197,-0.643 -0.673,-1.085 -1.351,-1.008 0.07,-0.186 0.067,-0.516 0.129,-0.66 -0.061,0.143 -2.503,2.013 -2.945,2.046 -0.811,0.061 -0.719,0.06 -0.782,-0.672 -0.107,-1.248 1.785,-3.146 2.355,-4.212 -1.258,0.656 -2.188,1.683 -2.948,2.869 -0.342,0.535 -1.152,1.706 0.15,1.337 0.331,1.396 -1.646,1.086 -1.942,-0.016 -0.375,-1.392 1.408,-2.936 2.441,-3.533 -0.141,-0.465 -0.271,-0.955 -0.332,-1.441 -1.369,0.25 -1.085,-0.875 -1.168,-1.819 -1.07,1.474 -1.729,3.308 -2.795,4.765 1.319,0.217 1.496,1.474 1.898,2.488 0.313,0.791 1.227,1.836 0.827,2.699 1.15,0.762 1.938,1.105 1.796,2.658 0.578,-0.238 0.871,0.252 1.462,0.354 0.958,0.164 2.009,-0.115 2.959,-0.17 2.454,-0.142 5.284,0.569 7.59,1.301 1.604,0.509 3.1,1.339 4.622,1.902 1.816,0.673 2.346,1.077 3.67,-0.379 1.103,-1.212 2.41,-2.473 3.121,-3.991 0.816,-1.744 0.244,-3.05 -0.328,-4.829 -0.754,-2.343 -1.412,-4.414 -1.834,-6.837 -0.439,-2.528 -0.553,-5.223 -0.842,-7.834 -0.375,-3.398 -0.846,-6.85 -0.779,-10.275 -1.02,3.749 -0.729,8.23 -0.674,12.111 0.029,2.143 0.272,4.306 0.791,6.368 0.389,1.544 0.965,3.053 1.049,4.668 0.067,1.286 -0.215,4.958 -1.279,5.799 0.727,0.241 0.41,0.783 0.107,1.329 -0.589,1.064 -2.02,1.296 -3.132,0.979 -1.103,-0.314 -1.601,-1.582 -2.537,-1.986 -0.64,-0.274 -0.367,-0.011 -1.024,0.004 -0.552,0.011 -1.089,0.04 -1.521,0.013 -0.093,-0.006 -0.31,-0.463 -0.648,-0.486 -0.547,-0.038 -1.323,0.785 -1.803,0.99 -1.05,0.447 -2.71,0.908 -3.849,1.037 -0.771,0.087 -2.942,-0.197 -1.655,-1.383"
         inkscape:connector-curvature="0" />
      <path
         id="path311"
         style="fill:#8cc63f;fill-opacity:0.368"
         d="m 314.135,152.313 c 1.871,-0.413 2.016,-4.111 2.828,-5.463 -0.078,0.019 -0.098,0.125 -0.18,0.009 -0.998,0.79 -1.924,4.374 -3.312,4.24 -0.15,-2.162 -0.025,-3.854 0.517,-5.982 0.686,-2.695 1.958,-5.872 1.983,-8.642 1.275,-0.016 0.647,-1.614 0.322,-2.325 1.372,-0.671 3.402,-1.267 4.835,-0.542 0.583,0.295 1.166,0.74 0.664,1.521 1.146,0.514 3.073,-1.589 3.994,-2.285 1.275,1.791 -1.695,4.992 -2.683,6.62 -0.782,1.29 -0.583,2.499 -0.501,4.017 0.108,1.979 0.041,3.938 0.002,5.929 0.337,-0.873 1.016,-0.24 1.471,0.21 1.1,-2.733 1.896,-5.584 3.24,-8.211 1.039,-2.03 2.053,-4.077 2.66,-6.267 0.771,-0.069 1.598,-0.16 2.111,-0.81 0.302,2.701 -1.439,5.055 -1.652,7.584 0.552,-1.764 1.586,-3.314 2.057,-5.127 0.389,-1.496 0.194,-3.018 0.491,-4.513 0.364,-1.841 0.562,-3.221 0.464,-5.123 -0.082,-1.596 -0.063,-4.251 -1.496,-5.382 -0.99,-0.781 -3.271,-1.402 -3.97,-0.358 1.39,0.384 3.413,0.398 4.173,1.704 0.594,1.021 0.085,2.301 -0.654,3.143 2.828,0.153 -2.225,4.094 -2.852,4.552 1.182,-0.58 2.637,-1.129 3.594,-1.972 0.36,0.586 0.051,2.379 0.041,3.148 -0.013,1.117 -0.379,2.137 -1.504,2.596 -1.947,0.796 -3.787,-2.227 -3.225,-3.949 -1.78,0.494 -3.65,1.921 -5.578,1.724 -0.783,-0.08 -1.854,-0.456 -1.727,-1.523 0.162,-1.349 1.307,-0.758 2.186,-0.681 1.863,0.164 5.313,0.055 6.151,-1.986 -1.133,2.039 -5.567,1.968 -6.938,0.248 -1.469,-1.842 -0.692,-6.325 1.951,-6.665 -1.299,-1.578 -4.453,-0.872 -6.139,-0.43 2.359,2.058 -2.158,4.681 -4.004,4.653 0.635,1.773 3.201,2.586 4.83,2.521 0.563,-0.022 2.105,-0.586 1.832,0.793 -0.373,1.887 -5.455,-1.148 -6.547,-0.508 -1.285,0.754 -0.085,1.32 0.373,2.025 1.018,1.565 0.738,3.519 0.863,5.256 0.141,-0.16 0.508,-0.301 0.633,-0.427 0.799,0.646 0.007,0.742 -0.197,1.279 -0.047,0.119 -0.375,0.273 -0.467,0.537 -0.096,0.275 0.025,0.713 0.002,1.004 -0.139,1.739 -0.672,3.495 -1.17,5.162 -0.534,1.784 -1.062,3.761 -1.162,5.639 -0.066,1.246 0.184,2.282 -0.163,3.398 -0.18,0.578 -0.597,0.858 -0.67,1.46 -0.121,1.007 0.414,2.131 0.544,3.128 0.246,1.883 -0.077,3.515 -0.545,5.329 -0.766,2.962 -2.463,6.733 -0.488,9.635 -0.621,-0.913 -0.004,-4.068 0.215,-5.091 0.327,-1.533 0.85,-3.018 1.351,-4.5 1.124,-3.322 2.273,-6.772 1.446,-10.302 z"
         inkscape:connector-curvature="0" />
      <path
         id="path313"
         style="fill:#8cc63f;fill-opacity:0.368"
         d="m 311.279,179.116 c -0.75,0.712 -5.052,3.737 -3.666,4.854 1.793,-0.982 2.66,-3.698 4,-5.187"
         inkscape:connector-curvature="0" />
    </g>
    <g
       id="g323"
       transform="matrix(-0.18491032,0.41183481,0.41183481,0.18491032,84.530149,-103.91882)">
      <g
         id="g325">
        <path
           id="path327"
           style="fill:#f4d58d;stroke:#000000"
           d="m 291.058,295.781 c 1.974,-3.986 4.026,-7.991 5.28,-12.277 1.371,-4.675 1.349,-9.667 1.198,-14.493 -0.233,-7.501 1.323,-14.903 1.064,-22.428 -0.267,-7.774 -1.524,-15.864 -0.737,-23.625 0.389,-3.836 -0.874,-7.836 -0.188,-11.494 0.204,-1.09 0.754,-1.9 0.938,-2.933 0.192,-1.083 -0.077,-2.183 0.189,-3.249 1.536,-6.136 8.831,-9.25 14.555,-9.25 3.227,0 6.188,-0.23 8.457,2.494 2.591,3.113 4.046,7.169 4.05,11.212 0.002,2.861 -0.889,4.882 -1.813,7.556 -1.391,4.031 -2.055,8.747 -3.487,12.962 -1.188,3.497 -3.226,6.684 -3.95,10.203 -0.758,3.681 -1.383,7.551 -1.805,11.298 -0.939,8.335 -3.219,16.46 -4.195,24.831 -0.745,6.387 -1.568,12.886 -0.773,19.311 0.664,5.365 4.04,11.696 1.773,17.134 -0.557,1.336 -1.66,2.006 -2.313,3.25 -0.482,0.924 -0.229,1.406 -0.625,2.312 -0.723,1.648 -2.547,3.062 -4.256,3.688 -2.287,0.839 -2.936,-0.721 -4.807,-1.93 -1.792,-1.158 -3.66,-1.76 -5.75,-1.374 -2.836,0.523 -5.352,3.118 -8.335,3.083 -3.938,-0.046 -2.75,-6.223 -1.977,-8.778 0.967,-3.192 3.147,-5.415 3.556,-8.756 0.401,-3.271 2.487,-5.791 3.951,-8.747 z"
           inkscape:connector-curvature="0" />
        <path
           id="path329"
           style="fill:#ddc16d"
           d="m 289.28,304.282 c -1.442,0.857 -2.338,3.671 -1.376,4.908 -1.626,1.121 -1.17,2.502 0.631,2.051 1.473,-0.368 2.524,-2.557 2.479,-3.925 2.278,1.618 5.784,0.029 4.306,-2.96 0.203,-0.469 0.374,-0.856 0.535,-1.365 -0.131,-0.123 -0.136,-0.113 -0.018,0.031 0.076,0.178 0.201,0.253 0.377,0.227 0.074,-2.239 1.83,-4.418 3.746,-5.49 0.15,0.322 0.102,0.768 0.035,1.133 0.277,0.092 0.676,0.084 0.832,0.392 -3.077,1.176 -2.924,3.33 -2.864,6.249 -0.215,-1.204 -0.532,-2.675 -1.96,-2.532 -1.031,2.447 2.592,6.62 -1.057,7.281 -1.561,0.283 -2.322,-0.728 -4.02,-0.092 -0.988,0.371 -2.117,1.176 -2.688,2.093 -0.428,0.688 3.954,0.557 4.166,0.609 0.761,0.189 1.613,1.232 2.672,1.43 1.843,0.345 5.006,-0.335 2.902,-2.622 1.328,-1.172 2.405,-0.569 2.982,0.724 -0.426,0.701 -0.607,1.695 -0.633,2.477 0.3,0.089 0.602,0.062 0.908,0.105 -0.037,0.158 -0.264,0.72 -0.26,0.852 1.058,0.67 1.568,1.955 2.034,3.058 1.202,-0.83 3.653,-7.738 0.661,-6.665 0.923,-1.914 -1.438,-2.154 -0.411,-4.626 1.04,-2.501 3.869,-4.322 3.951,-7.341 0.071,-2.631 -1.707,-2.55 -2.858,-4.326 -3.302,-5.095 1.166,-8.866 1.59,-13.982 0.678,-8.17 1.752,-16.478 1.982,-24.644 0.248,-8.759 -1.303,-17.349 0.603,-26.047 0.289,-1.32 1.502,-3.646 1.016,-4.935 -0.458,-1.211 -2.187,-1.552 -2.673,-2.984 -0.88,-2.59 2.352,-3.224 2.783,-6.7 1.234,-0.003 2.441,-0.494 3.596,-0.938 -1.604,0.617 0.864,2.456 1.86,2.348 1.327,-0.146 2.977,-1.985 4.104,-2.659 -0.24,1.018 -0.33,1.867 0.149,2.767 2.076,-0.583 3.404,-3.4 1.498,-5.027 -0.412,-0.351 -1.156,-0.341 -1.384,-0.74 -0.2,-0.352 -0.063,-1.728 -0.089,-2.158 -0.039,-0.644 -0.053,-1.307 -0.002,-1.951 0.314,0.691 0.595,2.881 1.947,2.453 1.443,-0.456 1.568,-2.676 -0.209,-2.625 0.328,-0.413 0.871,-0.313 1.239,-0.628 1.521,-1.305 -0.602,-3.537 -1.12,-4.772 0.68,1.476 -0.895,2.473 -2.266,1.26 0.77,2.956 -0.197,5.111 -0.02,8.17 -1.107,-1.342 -1.713,-3.294 -3.697,-1.977 -1.73,1.148 -0.197,3.772 -2.275,4.737 0.893,-1.474 0.072,-3.354 1.573,-4.397 -2.439,-2.732 -2.925,2.689 -4.688,0.801 -1.151,0.808 -1.103,2.804 -1.844,3.931 -0.501,-1.464 -0.469,-2.44 -0.658,-3.641 -0.145,-0.924 0.709,-3.094 -1.107,-1.784 0.219,-1.195 -0.227,-1.32 -0.742,-2.166 -2.019,0.54 -1.586,3.469 -2.918,4.959 -2.799,3.134 -2.145,0.555 -2.33,-1.909 1.151,3.7 3.961,-5.694 4.604,-6.324 -1.169,4.402 2.042,2.517 4.735,2.483 2.126,-0.026 1.576,0.183 3.324,1.408 1.248,0.874 1.971,1.627 3.642,1.283 -0.39,-1.571 -3.323,-6.399 -4.824,-4.644 0.319,-1.245 0.151,-2.588 0.243,-3.856 1.189,0.636 3.349,1.564 4.484,0.509 1.129,-1.05 0.658,-2.574 -0.576,-3.289 1.648,-1.56 -2.885,-1.752 -3.63,-1.753 2.675,-0.433 6.762,-0.063 8.587,2.247 1.065,1.348 2.176,2.811 3.006,4.347 1.679,3.101 1.631,7.775 0.416,11.024 -1.162,3.109 -4.283,5.746 -4.631,9.072 1.453,0.13 2.178,-2.317 2.551,-3.507 -0.926,7.789 -4.999,14.715 -6.807,22.275 -1.714,7.167 -1.883,14.406 -3.192,21.624 -1.146,6.315 -2.366,12.658 -3.259,19.009 -0.824,5.858 -1.07,10.779 0.416,16.674 0.502,1.991 4.566,12.336 0.949,12.384 0.795,1.45 -0.391,2.789 -1.74,3.483 0.262,-0.561 0.159,-1.046 0.306,-1.516 -1.294,0.683 -1.812,2.176 -1.874,3.574 0.199,-0.032 0.355,0.025 0.466,0.175 -1.323,1.062 -3.37,3.211 -5.087,3.421 0.296,0.35 0.62,1.078 0.955,1.431 -2.518,-1.391 -4.769,-3.305 -7.725,-3.474 -3.17,-0.181 -6.45,1.415 -9.48,2.219 1.838,-1.427 3.882,-2.846 6.292,-3.4 1.394,-0.32 4.894,-0.955 5.913,0.132 -0.557,0.091 -1.141,0.425 -1.648,0.494 1.339,0.447 10.221,3.725 8.111,-1.211 -2.209,0.957 -2.989,-1.101 -4.933,-1.653 -1.271,-0.361 -1.677,0.28 -2.58,0.192 -1.401,-0.136 -1.744,-0.589 -2.991,-1.016 -1.988,-0.682 -4.065,-0.759 -5.941,0.489 -1.432,0.952 -1.712,3.505 -3.343,3.882 -1.058,-2.397 0.499,-6.488 1.186,-8.897 0.468,-1.641 2.843,-5.133 2.749,-5.725"
           inkscape:connector-curvature="0" />
      </g>
      <path
         id="path331"
         style="fill:none;stroke:#967348;stroke-width:0.6"
         d="m 321.111,213.031 c 3.926,-0.586 2.357,-7.249 -0.654,-5.131 -1.837,1.292 -2.65,5.624 0.654,5.131 z"
         inkscape:connector-curvature="0" />
    </g>
    <path
       style="fill:none;stroke:#ff6200;stroke-width:2;stroke-linecap:butt;stroke-linejoin:miter;stroke-miterlimit:4;stroke-dasharray:none;stroke-opacity:0.856936"
       d="m 131.90179,83.971825 c 0,0 -14.42397,-2.606768 -18.2899,-4.219256 C 107.2477,76.414971 101.36236,71.007976 96.243171,69.576686 91.291718,68.192294 87.102338,70.742823 81.25715,69.962276 79.084895,69.57972 63.004065,68.129792 63.004065,68.129792"
       id="path847-3"
       sodipodi:nodetypes="ccscc" />
  </g>
</svg>
